<svg xmlns="http://www.w3.org/2000/svg" width="20" height="21" fill="none"><path fill="#080C09" fill-rule="evenodd" d="m19.893 7.985.08.263c.065.199.01.42-.14.558l-4.847 4.369 1.436 6.547a.553.553 0 0 1-.19.558l-.219.158a.453.453 0 0 1-.299.105.46.46 0 0 1-.259-.074L10 16.964l-5.425 3.505a.46.46 0 0 1-.26.074.453.453 0 0 1-.299-.105l-.249-.158a.553.553 0 0 1-.19-.558l1.437-6.548L.177 8.817a.534.534 0 0 1-.15-.569l.11-.263a.495.495 0 0 1 .439-.368l6.372-.537L9.392.88A.51.51 0 0 1 9.87.543h.26a.49.49 0 0 1 .468.337l2.483 6.2 6.373.537c.205.013.38.16.439.368Zm-5.784 9.463-1.117-4.926 3.66-3.295-4.797-.4L10 4.133v10.673l4.109 2.642Z" clip-rule="evenodd"/></svg>