<svg xmlns="http://www.w3.org/2000/svg" width="20" height="21" fill="none"><path fill="#080C09" d="M9.07 1.191a.99.99 0 0 1 1.859 0l2.029 5.103c.145.364.473.613.849.645l5.266.441c.892.075 1.254 1.24.574 1.849l-4.012 3.595c-.287.257-.412.66-.325 1.043l1.226 5.376c.208.91-.74 1.63-1.503 1.142l-4.509-2.88a.969.969 0 0 0-1.049 0l-4.508 2.88c-.764.488-1.711-.232-1.503-1.142l1.225-5.375a1.082 1.082 0 0 0-.324-1.044L.353 9.229c-.68-.61-.318-1.774.574-1.849l5.266-.441c.376-.032.704-.28.849-.645L9.071 1.19Z"/></svg>