<svg xmlns="http://www.w3.org/2000/svg" width="20" height="20" fill="none"><path fill="#080C09" d="m4.516 12.323-1.49 6.452a.998.998 0 0 0 1.529 1.057L10 16.202l5.445 3.63a1.001 1.001 0 0 0 1.517-1.106l-1.829-6.4 4.536-4.082a1 1 0 0 0-.59-1.74l-5.701-.454L10.911.589a.997.997 0 0 0-1.822 0L6.622 6.05l-5.701.453a1 1 0 0 0-.619 1.713l4.214 4.107Zm2.853-4.326a.998.998 0 0 0 .832-.586L10 3.43l1.799 3.981a.998.998 0 0 0 .832.586l3.972.315-3.271 2.944c-.284.256-.397.65-.293 1.018l1.253 4.385-3.736-2.491a.995.995 0 0 0-1.109 0l-3.904 2.603 1.05-4.546a1 1 0 0 0-.276-.94L3.279 8.323l4.09-.326Z"/></svg>