<svg xmlns="http://www.w3.org/2000/svg" width="16" height="16" fill="none"><path fill="#fff" fill-rule="evenodd" d="m15.914 5.656.064.2a.393.393 0 0 1-.111.424L11.989 9.6l1.149 4.976a.409.409 0 0 1-.152.424l-.175.12a.374.374 0 0 1-.24.08.383.383 0 0 1-.207-.056L8 12.48l-4.34 2.664a.383.383 0 0 1-.207.056.375.375 0 0 1-.24-.08l-.2-.12a.409.409 0 0 1-.15-.424L4.01 9.6.141 6.288a.393.393 0 0 1-.119-.432l.088-.2a.391.391 0 0 1 .35-.28l5.099-.408L7.513.256A.407.407 0 0 1 7.896 0h.208a.39.39 0 0 1 .375.256l1.986 4.712 5.098.408a.39.39 0 0 1 .351.28Zm-4.627 7.192-.893-3.744L13.322 6.6l-3.838-.304L8 2.728v8.112l3.287 2.008Z" clip-rule="evenodd"/></svg>