<svg xmlns="http://www.w3.org/2000/svg" width="159" height="35" fill="none"><path d="M15.777.289c-3.903.583-6.851 2.12-9.819 5.117-3.392 3.426-4.886 7.092-4.894 12.005-.005 3.253.341 4.768 1.772 7.749.986 2.055 1.563 2.86 3.229 4.506 9.577 9.462 25.661 5.046 29.062-7.979.559-2.141.557-6.42-.005-8.569-1.08-4.135-4.267-8.407-7.867-10.543C24.008.648 19.448-.26 15.777.289m5.753 1.954c5.315 1.126 9.909 5.276 11.6 10.477.949 2.92.914 6.754-.087 9.627-3.308 9.491-14.142 13.537-22.672 8.468-3.204-1.905-5.953-5.442-7.019-9.034C1.011 13.894 5.636 5.21 13.515 2.698c2.916-.93 5.171-1.058 8.015-.455M87.147 7.8c-5.091 1.346-6.54 2.85-7.108 7.373-.63 5.014.955 9.103 4.024 10.385 1.212.507 3.904.536 5.052.055 2.414-1.012 3.895-3.394 3.895-6.268 0-3.819-2.351-6.373-5.911-6.423-1.777-.025-2.964.425-4.22 1.6-.725.678-.729.679-.729.094 0-.816.71-2.433 1.381-3.148.681-.725 2.653-1.48 4.997-1.913 2.316-.428 2.547-.587 2.22-1.523-.334-.953-.772-.981-3.601-.232m-42.726.978c-.091.456-.166 4.45-.166 8.878v8.049h2.12l.012-6.956.011-6.956.536.927c.294.51 1.586 2.895 2.87 5.3 2.128 3.985 2.402 4.379 3.099 4.451.871.089 1.066-.204 4.633-6.968l1.956-3.71.071 6.956.071 6.956H61.745V7.95h-2.532l-3.015 5.83c-1.658 3.206-3.089 5.83-3.18 5.83-.091 0-1.522-2.624-3.18-5.83l-3.015-5.83h-1.118c-1.041 0-1.13.058-1.284.828m97.089.232v1.06h2.12V7.95h-2.12v1.06M9.54 17.093v8.612h1.855l.066-4.969c.037-2.733.059-5.775.049-6.761-.009-.986.07-1.702.176-1.59.106.111.988 1.574 1.96 3.25a260.953 260.953 0 0 0 2.966 4.984c1.538 2.484 1.918 2.475 3.427-.081l3.049-5.168 1.955-3.312.07 6.823.071 6.824h1.846V8.48h-2.034l-3.333 5.56-3.333 5.559-2.236-3.771a759.73 759.73 0 0 1-3.269-5.554c-1.017-1.758-1.049-1.784-2.159-1.789L9.54 8.48v8.613m59.227-4.006c-2.466 1.166-3.827 3.34-3.835 6.126-.006 2.221.364 3.322 1.582 4.705 1.355 1.54 2.781 2.121 5.189 2.117 2.087-.004 3.155-.412 4.554-1.74l.865-.82-.6-.333c-.808-.449-1.395-.433-1.794.048-.183.22-.966.584-1.74.81-1.697.493-3.082.217-4.377-.873-.768-.646-1.566-2.029-1.566-2.713 0-.179 1.833-.274 5.3-.274h5.3v-1.075c0-3.001-1.62-5.488-4.041-6.208-1.9-.564-3.298-.498-4.837.23m45.181-.384c-2.884.877-4.5 3.023-4.71 6.255-.272 4.198 2.399 7.078 6.573 7.086 1.987.004 3.68-.629 4.853-1.816l.751-.76-.793-.376c-.719-.34-.877-.324-1.679.167-2.187 1.34-4.384 1.292-6.077-.132-.768-.646-1.566-2.029-1.566-2.713 0-.179 1.845-.274 5.336-.274h5.335l-.128-1.791c-.145-2.025-.578-3.031-1.836-4.261-1.352-1.322-4.158-1.963-6.059-1.385m16.289.019c-.443.137-1.297.67-1.897 1.184-.601.514-1.177.934-1.282.934-.105 0-.114-.477-.021-1.06l.169-1.06h-2.126v18.285h2.12v-6.923l1.175.844c3.034 2.178 7.42 1.089 9.15-2.272.557-1.083.672-1.672.669-3.434-.004-2.293-.369-3.319-1.683-4.736-1.452-1.565-4.315-2.37-6.274-1.762m-32.911 4.039c-.361 4.965-.852 6.567-2.129 6.945-.737.218-.857.374-.857 1.111 0 1.097.268 1.244 1.613.882 2.243-.604 3.109-2.563 3.387-7.655l.168-3.071 2.186-.077 2.186-.077v10.886H106V12.72h-8.38l-.294 4.041m44.347 1.118c-.101 2.837-.104 5.758-.007 6.492.172 1.291.205 1.334 1.036 1.334h.858l.193-5.678c.106-3.124.112-6.045.014-6.493-.155-.706-.294-.814-1.045-.814h-.866l-.183 5.159m8.309-4.563c-1.585.801-2.377 2.032-2.377 3.696 0 1.517.487 2.592 1.516 3.35.625.46.688.615.419 1.021-.762 1.151-2.465 4.031-2.465 4.17 0 .083.529.152 1.175.152h1.174l1.361-2.253 1.361-2.252h3.674v4.505h2.12V12.72h-3.389c-2.988 0-3.528.071-4.569.596m-76.328 1.759c.923.658 1.574 1.619 1.769 2.614l.168.861h-4.273c-2.761 0-4.273-.097-4.273-.274 0-1.201 1.621-3.145 3.048-3.653 1.011-.36 2.726-.143 3.561.452m44.288-.05c.824.486 1.838 2.123 1.838 2.965 0 .547-.1.56-4.258.56h-4.258l.186-.596c.408-1.311.622-1.685 1.347-2.352 1.437-1.323 3.492-1.554 5.145-.577m16.101.266c2.906 2.152 2.796 6.193-.224 8.245-1.203.817-3.436.729-4.721-.185-2.78-1.98-2.426-6.701.62-8.262 1.301-.668 3.276-.575 4.325.202m21.777 1.669v2.385h-2.232c-2.015 0-2.312-.067-3.048-.686-.927-.78-1.064-1.755-.383-2.727.636-.909 1.862-1.335 3.874-1.347l1.789-.01v2.385m-67.018-1.522c1.086.722 2.093 2.605 2.093 3.916 0 1.415-1.265 3.695-2.385 4.296-1.161.623-3.177.502-4.193-.252-2.808-2.081-2.357-7.021.753-8.262 1.173-.468 2.767-.339 3.732.302" fill-rule="evenodd" fill="#000"/></svg>