<svg width="221" height="50" viewBox="0 0 221 50" fill="none" xmlns="http://www.w3.org/2000/svg">
    <g clip-path="url(#clip0_11217_505)">
        <path d="M22.7009 0.867836C36.1192 -0.384195 48.0087 9.48627 49.2469 22.9059C50.4852 36.326 40.6028 48.2047 27.1819 49.4292C13.7804 50.6524 1.92181 40.7872 0.685298 27.3866C-0.551085 13.9866 9.30189 2.11791 22.7009 0.867836ZM27.5665 46.8484C39.5456 45.4101 48.0882 34.529 46.6427 22.5513C45.1973 10.5731 34.3113 2.0372 22.334 3.49031C10.3674 4.942 1.84096 15.8161 3.28508 27.783C4.72933 39.7517 15.5979 48.2842 27.5665 46.8484Z" fill="white" />
        <path d="M34.5099 12.4577L37.3167 12.4385C37.3712 20.5393 37.3751 28.6407 37.3288 36.7415L34.4265 36.778L34.4222 21.557L34.4089 17.389C32.7878 20.4655 30.9473 23.4231 29.1938 26.4251C28.0824 28.3277 27.0501 30.5107 25.6747 32.2216C25.3466 32.3416 24.9907 32.3507 24.6489 32.2725C24.5372 32.2464 24.3032 32.159 24.2183 32.0912C23.4764 31.4992 16.5004 19.2444 15.3863 17.386C15.6723 19.5897 15.4926 21.9943 15.4914 24.2189L15.4829 36.718L12.5151 36.7285C12.6071 28.6407 12.4619 20.5471 12.5395 12.4575L15.7713 12.4743C17.2083 15.0437 18.7499 17.5594 20.2401 20.0985C21.8238 22.7969 23.3659 25.5279 25.0484 28.166C26.7601 25.0402 28.6742 22.0106 30.5142 18.9571C31.8175 16.7944 33.0496 14.5169 34.5099 12.4577Z" fill="white" />
        <path d="M183.117 18.2311C183.689 18.1926 184.277 18.1775 184.851 18.1877C186.991 18.2259 189.177 19.3701 190.641 20.8869C192.467 22.777 193.315 25.4132 193.253 28.0135C193.192 30.6595 192.2 33.175 190.253 34.9902C188.526 36.5982 186.314 37.4588 183.949 37.3702C181.24 37.2684 179.445 36.1274 177.628 34.1882C177.558 35.298 177.578 36.4208 177.568 37.5332C177.58 39.7423 177.577 41.9513 177.559 44.1617C176.529 44.2634 175.491 44.2543 174.462 44.133C174.63 40.7125 174.481 37.2098 174.483 33.7801C174.483 28.6786 174.563 23.5634 174.449 18.4636L177.513 18.4516C177.453 19.5897 177.468 20.7393 177.451 21.8793C179.111 19.8074 180.496 18.8085 183.117 18.2311ZM184.444 34.6329C186.35 34.2756 187.826 33.4984 188.943 31.854C190.038 30.2174 190.43 28.2104 190.032 26.283C189.691 24.5653 188.673 22.9419 187.178 22.0032C186 21.2643 184.726 21.0613 183.366 21.0998C181.478 21.4567 179.947 22.1292 178.815 23.7753C177.748 25.3258 177.289 27.5336 177.649 29.3776C177.991 31.1485 179.04 32.7029 180.557 33.6784C181.766 34.4386 183.043 34.6577 184.444 34.6329Z" fill="white" />
        <path d="M125.932 10.5449C126.432 11.0582 126.587 12.4126 126.884 13.1379C123.668 14.4876 119.006 14.2101 116.42 16.6803C114.874 18.158 114.505 20.2012 114.472 22.2377C115.856 20.5287 117.372 19.1439 119.641 18.7647C121.934 18.3813 124.363 18.8248 126.244 20.2242C128.264 21.7279 129.388 23.9078 129.726 26.3769C130.113 29.2145 129.406 31.8905 127.665 34.1569C126.404 35.5562 124.937 36.5903 123.089 37.0428C120.75 37.6166 118.079 37.3193 116.017 36.04C113.666 34.5795 112.313 32.1696 111.726 29.5184C110.849 25.5566 111.021 19.6358 113.305 16.1193C115.318 13.017 118.359 12.4028 121.738 11.5993C123.141 11.2655 124.525 10.8549 125.932 10.5449ZM120.585 34.6499C122.577 34.3552 124.058 33.8779 125.296 32.1669C126.51 30.4899 126.902 28.3721 126.525 26.356C126.222 24.7291 125.365 23.241 123.968 22.3204C123.113 21.7548 122.12 21.4307 121.095 21.3822C119.158 21.5988 117.564 22.0002 116.274 23.5983C115.064 25.0989 114.546 27.1254 114.814 29.0268C115.058 30.7612 116.006 32.4304 117.43 33.4645C118.393 34.1635 119.427 34.4699 120.585 34.6499Z" fill="white" />
        <path d="M82.36 11.7794C83.492 11.6658 84.6698 11.7202 85.8084 11.7122C85.6548 20.0477 85.8381 28.4075 85.7903 36.747L82.7885 36.717L82.7932 21.9714C82.7849 20.282 82.7497 18.5891 82.8533 16.902C80.0868 22.0113 77.5909 27.3447 74.5609 32.2988L72.6104 32.2884C69.6259 27.3956 67.1422 22.1232 64.3824 17.0954C64.4904 19.4011 64.4174 21.7424 64.4189 24.0517L64.4256 36.7483C63.4248 36.7222 62.428 36.7874 61.426 36.7405L61.4274 21.5517C61.4295 18.2867 61.3656 15.0012 61.5445 11.7407L64.8843 11.7425C65.8337 13.3702 66.6405 15.1144 67.503 16.7912C69.504 20.6808 71.4846 24.6127 73.6432 28.4166C76.8157 23.0374 79.3271 17.2432 82.36 11.7794Z" fill="white" />
        <path d="M97.7985 18.2363C98.2566 18.2118 98.7151 18.1945 99.1738 18.1843C101.577 18.1449 103.972 18.8006 105.704 20.542C108.022 22.8716 108.253 25.8074 108.253 28.9098C103.251 28.9737 98.2411 28.9059 93.2375 28.9281C93.3918 29.7535 93.5471 30.5438 93.9399 31.2975C94.722 32.805 96.0792 33.9331 97.7042 34.426C99.6492 35.0154 101.606 34.6699 103.355 33.7049C103.942 33.3058 104.479 32.839 105.025 32.3878C105.811 32.8363 106.605 33.2106 107.435 33.5692C106.201 35.2345 104.609 36.4486 102.595 37.0002C100.016 37.7057 96.8733 37.4293 94.5503 36.0626C92.5135 34.8616 91.0522 32.8846 90.502 30.5855C89.8158 27.8209 90.1991 24.7971 91.6991 22.3654C93.1451 20.0214 95.1741 18.8632 97.7985 18.2363ZM93.2696 26.5729C95.7475 26.5534 98.2255 26.5455 100.703 26.5521L105.335 26.5547C104.883 24.6539 104.431 22.8918 102.662 21.7791C101.368 20.9648 99.7985 20.8408 98.309 20.9649C96.7006 21.3363 95.3448 22.0684 94.4268 23.4861C93.8053 24.446 93.5298 25.4775 93.2696 26.5729Z" fill="white" />
        <path d="M160.031 18.2302C160.48 18.2078 160.929 18.1928 161.379 18.1853C163.776 18.1593 166.171 18.8704 167.882 20.6193C170.133 22.9213 170.34 25.859 170.33 28.8975C165.348 28.9731 160.355 28.9131 155.371 28.9249C155.438 29.8338 155.597 30.6162 156.022 31.4339C156.807 32.9479 158.11 33.9494 159.736 34.4254C161.911 35.0644 163.891 34.5923 165.813 33.5256C166.282 33.2022 166.7 32.8071 167.126 32.4289C167.916 32.854 168.717 33.1983 169.549 33.5295C168.246 35.2418 166.625 36.4832 164.52 37.0166C161.903 37.6803 158.899 37.4261 156.563 36.0164C154.49 34.7645 153.068 32.7014 152.523 30.3515C151.901 27.6677 152.335 24.581 153.835 22.2543C155.335 19.9281 157.386 18.8023 160.031 18.2302ZM155.344 26.5658C157.716 26.5593 160.091 26.5267 162.463 26.5515L167.49 26.5489C166.968 24.5945 166.422 22.6903 164.531 21.6152C163.36 20.9487 161.933 20.8351 160.611 20.9688C159.042 21.2284 157.716 21.8186 156.742 23.1301C155.97 24.1688 155.641 25.3296 155.344 26.5658Z" fill="white" />
        <path d="M211.766 18.4936C214.801 18.3513 217.88 18.4544 220.92 18.4641C220.764 24.5398 220.903 30.6566 220.9 36.7374L217.774 36.7035L217.772 30.4609C216.278 30.4518 214.312 30.1597 212.888 30.4988C212.443 30.6044 212.364 30.8287 212.115 31.1743C211.06 33.0456 209.886 34.8517 208.827 36.7244C207.646 36.7504 206.463 36.7544 205.281 36.7335C206.438 34.5622 208.008 31.7989 209.539 29.9185C209.356 29.8298 209.176 29.7359 208.999 29.6394C207.664 28.9026 206.643 27.7172 206.251 26.2306C205.845 24.6808 206.066 22.912 206.896 21.5359C208.013 19.6795 209.763 18.9658 211.766 18.4936ZM214.972 27.8411C215.895 27.8333 216.837 27.862 217.757 27.7954C217.745 25.6346 217.751 23.4738 217.774 21.3129C215.941 21.3063 214.082 21.2571 212.251 21.3575C211.096 21.7194 210.194 22.1099 209.57 23.2234C209.157 23.9635 209.046 24.9401 209.325 25.7441C209.595 26.5227 210.22 27.0691 210.955 27.4016C212.197 27.9624 213.642 27.8528 214.972 27.8411Z" fill="white" />
        <path d="M136.074 18.6614C140.033 18.5186 144.026 18.6112 147.989 18.6039L147.971 36.7352C146.983 36.7208 145.992 36.6791 145.013 36.8134L144.999 21.4548L143.319 21.5225C141.819 21.4486 140.287 21.5473 138.785 21.5825C138.743 25.2373 138.729 32.8139 136.169 35.5185C134.892 36.8669 133.45 37.0051 131.706 37.0195C131.693 36.0662 131.642 35.1247 131.573 34.174C132.028 34.1323 132.511 34.101 132.954 33.9888C135.71 33.2938 135.758 24.1887 135.827 21.893C135.854 20.9983 135.656 19.3897 136.074 18.6614Z" fill="white" />
        <path d="M200.288 18.5278L200.694 18.5039C200.742 18.5698 200.811 18.6247 200.841 18.7015C200.977 19.0581 200.837 34.8969 200.839 36.7278L198.183 36.746L197.988 36.7069C197.563 35.9388 197.989 20.8455 197.856 18.5639C198.667 18.5739 199.478 18.5467 200.288 18.5278Z" fill="white" />
        <path d="M197.8 11.6908L200.855 11.6816C200.822 12.7654 200.847 13.8502 200.862 14.9341L197.718 14.9578C197.764 13.8693 197.791 12.7802 197.8 11.6908Z" fill="white" />
    </g>
    <defs>
        <clipPath id="clip0_11217_505">
            <rect width="220.338" height="48.771" fill="white" transform="translate(0.580566 0.760742)" />
        </clipPath>
    </defs>
</svg>