<svg xmlns="http://www.w3.org/2000/svg" aria-hidden="true" style="position:absolute;width:0;height:0;overflow:hidden">
 <defs>
  <symbol id="icon-arrow-back" viewBox="0 0 32 32">
   <path d="M28 14.667H8.552l7.057-7.057-1.885-1.885L3.448 16.001l10.276 10.276 1.885-1.885-7.057-7.057H28v-2.667z"/>
  </symbol>
  <symbol id="icon-chevron-down" viewBox="0 0 32 32">
   <path d="M21.724 11.057 16 16.781l-5.724-5.724-1.885 1.885L16 20.551l7.609-7.609-1.885-1.885z"/>
  </symbol>
  <symbol id="icon-chevron-left" viewBox="0 0 32 32">
   <path d="M17.724 8.391 10.115 16l7.609 7.609 1.885-1.885L13.885 16l5.724-5.724-1.885-1.885z"/>
  </symbol>
  <symbol id="icon-chevron-right" viewBox="0 0 32 32">
   <path d="m12.943 22.599 7.609-7.609-7.609-7.609-1.885 1.885 5.724 5.724-5.724 5.724 1.885 1.885z"/>
  </symbol>
  <symbol id="icon-chevron-up" viewBox="0 0 32 32">
   <path d="m8.391 19.057 1.885 1.885L16 15.218l5.724 5.724 1.885-1.885L16 11.448l-7.609 7.609z"/>
  </symbol>
  <symbol id="icon-down-arrow-alt" viewBox="0 0 32 32">
   <path d="m24.943 16.943-1.885-1.885-5.724 5.724V8.001h-2.667v12.781l-5.724-5.724-1.885 1.885 8.943 8.943 8.943-8.943z"/>
  </symbol>
  <symbol id="icon-facebook" viewBox="0 0 32 32">
   <path d="M29.333 16.405C29.333 8.996 23.364 2.99 16 2.99S2.667 8.996 2.667 16.405c0 6.696 4.876 12.245 11.25 13.252v-9.374h-3.385v-3.878h3.385V13.45c0-3.362 1.991-5.219 5.036-5.219 1.459 0 2.985.262 2.985.262v3.301h-1.681c-1.656 0-2.173 1.034-2.173 2.095v2.516h3.698l-.591 3.878h-3.107v9.374c6.374-1.006 11.25-6.556 11.25-13.252z"/>
  </symbol>
  <symbol id="icon-instagram" viewBox="0 0 32 32">
   <path d="M15.998 6.161c3.206 0 3.585.014 4.846.071 1.172.052 1.804.248 2.226.412.558.216.961.478 1.378.895.422.422.679.82.9 1.378.164.422.361 1.059.412 2.226.056 1.266.071 1.645.071 4.847s-.014 3.585-.071 4.847c-.052 1.172-.248 1.804-.412 2.227a3.702 3.702 0 0 1-.895 1.377c-.422.422-.82.679-1.378.9-.422.164-1.06.361-2.226.412-1.266.056-1.645.071-4.847.071s-3.585-.014-4.847-.071c-1.172-.052-1.804-.248-2.226-.412a3.714 3.714 0 0 1-1.378-.895 3.767 3.767 0 0 1-.9-1.378c-.164-.422-.361-1.06-.412-2.226-.056-1.266-.071-1.645-.071-4.847s.014-3.585.071-4.847c.052-1.172.248-1.804.412-2.226.216-.558.478-.961.895-1.378.422-.422.82-.679 1.378-.9.422-.164 1.059-.361 2.226-.412 1.261-.056 1.641-.071 4.847-.071h.001zm0-2.16c-3.258 0-3.665.014-4.945.071-1.275.056-2.151.262-2.91.558a5.847 5.847 0 0 0-2.127 1.387A5.883 5.883 0 0 0 4.629 8.14c-.295.764-.502 1.636-.558 2.91C4.015 12.335 4 12.742 4 15.999s.014 3.665.071 4.945c.056 1.275.262 2.151.558 2.91a5.86 5.86 0 0 0 1.387 2.127 5.876 5.876 0 0 0 2.123 1.383c.764.295 1.636.502 2.91.558 1.279.056 1.687.071 4.945.071s3.666-.014 4.945-.071c1.275-.056 2.151-.262 2.91-.558.787-.305 1.458-.717 2.123-1.383s1.078-1.336 1.383-2.123c.295-.764.502-1.635.558-2.91.056-1.279.071-1.687.071-4.945s-.014-3.665-.071-4.945c-.056-1.275-.262-2.151-.558-2.91a5.622 5.622 0 0 0-1.373-2.133 5.876 5.876 0 0 0-2.123-1.383c-.764-.295-1.635-.502-2.91-.558-1.284-.061-1.692-.075-4.949-.075L15.999 4z"/>
   <path d="M15.998 9.836a6.164 6.164 0 1 0 6.163 6.163 6.164 6.164 0 0 0-6.163-6.163zm0 10.161a3.998 3.998 0 1 1 0-7.996 3.998 3.998 0 0 1 0 7.996zM23.843 9.592a1.439 1.439 0 1 1-2.877 0 1.439 1.439 0 0 1 2.877 0z"/>
  </symbol>
  <symbol id="icon-left-arrow-alt" viewBox="0 0 32 32">
   <path d="m16.943 23.057-5.724-5.724H24v-2.667H11.219l5.724-5.724-1.885-1.885L6.115 16l8.943 8.943 1.885-1.885z"/>
  </symbol>
  <symbol id="icon-menu" viewBox="0 0 32 32">
   <path d="M5.333 8h21.333v2.667H5.333V8zm0 6.667h21.333v2.667H5.333v-2.667zm0 6.666h21.333V24H5.333v-2.667z"/>
  </symbol>
  <symbol id="icon-minus" viewBox="0 0 32 32">
   <path d="M6.667 14.667h18.667v2.667H6.667v-2.667z"/>
  </symbol>
  <symbol id="icon-plus" viewBox="0 0 32 32">
   <path d="M25.333 14.667h-8v-8h-2.667v8h-8v2.667h8v8h2.667v-8h8v-2.667z"/>
  </symbol>
  <symbol id="icon-right-arrow-alt" viewBox="0 0 32 32">
   <path d="m15.057 23.057 1.885 1.885 8.943-8.943-8.943-8.943-1.885 1.885 5.724 5.724H8v2.667h12.781l-5.724 5.724z"/>
  </symbol>
  <symbol id="icon-star" viewBox="0 0 32 32">
   <path d="M8.688 19.097 6.701 27.7a1.326 1.326 0 0 0 .538 1.4 1.327 1.327 0 0 0 1.501.009l7.26-4.84 7.26 4.84a1.333 1.333 0 0 0 1.525-.034 1.34 1.34 0 0 0 .498-1.441l-2.439-8.533 6.048-5.443a1.332 1.332 0 0 0-.073-2.043 1.339 1.339 0 0 0-.714-.277l-7.601-.605-3.289-7.281A1.327 1.327 0 0 0 16 2.665a1.33 1.33 0 0 0-1.215.787l-3.289 7.281-7.601.604a1.333 1.333 0 0 0-.825 2.284l5.619 5.476zm3.804-5.768a1.329 1.329 0 0 0 1.11-.782l2.399-5.308 2.399 5.308a1.33 1.33 0 0 0 1.11.782l5.296.42-4.361 3.925a1.336 1.336 0 0 0-.391 1.357l1.671 5.847-4.981-3.321a1.325 1.325 0 0 0-1.478 0l-5.205 3.471 1.4-6.061a1.343 1.343 0 0 0-.368-1.254l-4.051-3.949 5.453-.435z"/>
  </symbol>
  <symbol id="icon-up-arrow-alt" viewBox="0 0 32 32">
   <path d="M14.667 11.219V24h2.667V11.219l5.724 5.724 1.885-1.885L16 6.115l-8.943 8.943 1.885 1.885 5.724-5.724z"/>
  </symbol>
  <symbol id="icon-x" viewBox="0 0 32 32">
<path d="M29.671 28.728l-0.943 0.943c-0.521 0.521-1.365 0.521-1.886 0l-10.842-10.842-10.842 10.842c-0.521 0.521-1.365 0.521-1.886 0l-0.943-0.943c-0.521-0.521-0.521-1.365 0-1.886l10.842-10.842-10.842-10.842c-0.521-0.521-0.521-1.365 0-1.886l0.943-0.943c0.521-0.521 1.365-0.521 1.886 0l10.842 10.842 10.842-10.842c0.521-0.521 1.365-0.521 1.886 0l0.943 0.943c0.521 0.521 0.521 1.365 0 1.886l-10.842 10.842 10.842 10.842c0.521 0.521 0.521 1.365 0 1.886z"></path>
</symbol>
  <symbol id="icon-youtube" viewBox="0 0 32 32">
   <path d="M28.791 9.604a3.345 3.345 0 0 0-2.35-2.354C24.353 6.677 16 6.667 16 6.667s-8.352-.009-10.441.539a3.416 3.416 0 0 0-2.354 2.371c-.551 2.088-.556 6.419-.556 6.419s-.005 4.352.541 6.419a3.341 3.341 0 0 0 2.351 2.353c2.109.573 10.44.583 10.44.583s8.353.009 10.441-.537a3.356 3.356 0 0 0 2.356-2.35c.552-2.087.556-6.416.556-6.416s.027-4.353-.543-6.441zM13.328 20.007l.007-8 6.943 4.007-6.949 3.993z"/>
  </symbol>
  <symbol id="icon-logo-header" viewBox="0 0 145 32">
<path d="M14.425 0.264c-3.568 0.533-6.264 1.938-8.977 4.678-3.101 3.132-4.467 6.484-4.474 10.976-0.005 2.974 0.312 4.359 1.62 7.085 0.901 1.879 1.429 2.615 2.952 4.12 8.756 8.651 23.462 4.613 26.571-7.295 0.511-1.957 0.509-5.87-0.005-7.835-0.987-3.781-3.901-7.686-7.193-9.639-2.969-1.762-7.138-2.592-10.494-2.090zM19.685 2.051c4.859 1.030 9.060 4.824 10.606 9.579 0.868 2.67 0.836 6.175-0.080 8.802-3.024 8.678-12.93 12.377-20.729 7.742-2.929-1.742-5.443-4.976-6.417-8.26-2.14-7.211 2.088-15.151 9.292-17.447 2.666-0.85 4.728-0.967 7.328-0.416zM79.677 7.131c-4.655 1.231-5.979 2.606-6.499 6.741-0.576 4.584 0.873 8.323 3.679 9.495 1.108 0.464 3.569 0.49 4.619 0.050 2.207-0.925 3.561-3.103 3.561-5.731 0-3.492-2.15-5.827-5.404-5.872-1.625-0.023-2.71 0.389-3.858 1.463-0.663 0.62-0.666 0.621-0.666 0.086 0-0.746 0.649-2.224 1.263-2.878 0.623-0.663 2.426-1.353 4.569-1.749 2.118-0.391 2.329-0.537 2.030-1.392-0.305-0.871-0.706-0.897-3.292-0.212zM40.614 8.026c-0.083 0.417-0.152 4.069-0.152 8.117v7.359h1.938l0.011-6.36 0.010-6.36 0.49 0.848c0.269 0.466 1.45 2.647 2.624 4.846 1.946 3.643 2.196 4.004 2.833 4.069 0.796 0.081 0.975-0.186 4.236-6.371l1.788-3.392 0.13 12.72h1.93v-16.233h-2.315l-2.757 5.33c-1.516 2.931-2.824 5.33-2.907 5.33s-1.392-2.399-2.907-5.33l-2.757-5.33h-1.022c-0.952 0-1.033 0.053-1.174 0.757zM129.381 8.238v0.969h1.938v-1.938h-1.938v0.969zM8.722 15.628v7.874h1.696l0.060-4.543c0.034-2.499 0.054-5.28 0.045-6.181s0.064-1.556 0.161-1.454c0.097 0.101 0.903 1.439 1.792 2.971 1.49 2.616 2.388 4.103 3.301 5.581l-0.589-1.024c1.406 2.271 1.754 2.263 3.133-0.074l4.575-7.753 0.064 6.238 0.065 6.239h1.688v-15.749h-1.86l-6.095 10.166-2.044-3.448c0.75 1.471-0.239-0.187-1.223-1.85l-1.766-3.228c-0.93-1.607-0.959-1.631-1.974-1.636l-1.030-0.005v7.875zM62.873 11.965c-2.255 1.066-3.499 3.054-3.506 5.601-0.005 2.031 0.333 3.037 1.446 4.302 1.239 1.408 2.543 1.939 4.744 1.936 1.908-0.004 2.885-0.377 4.164-1.591l0.791-0.75-0.549-0.304c-0.739-0.41-1.275-0.396-1.64 0.044-0.167 0.201-0.883 0.534-1.591 0.741-1.552 0.451-2.818 0.198-4.002-0.798-0.702-0.591-1.432-1.855-1.432-2.48 0-0.164 1.676-0.25 4.846-0.25h4.846v-0.983c0-2.744-1.481-5.018-3.695-5.676-1.737-0.516-3.015-0.455-4.422 0.21zM104.181 11.614c-2.637 0.802-4.114 2.764-4.306 5.719-0.249 3.838 2.193 6.471 6.010 6.479 1.817 0.004 3.365-0.575 4.437-1.66l0.687-0.695-0.725-0.344c-0.657-0.311-0.802-0.296-1.535 0.153-2 1.225-4.008 1.181-5.556-0.121-0.702-0.591-1.432-1.855-1.432-2.48 0-0.164 1.687-0.25 4.879-0.25h4.878l-0.117-1.637c-0.133-1.851-0.528-2.771-1.679-3.896-1.236-1.209-3.802-1.795-5.54-1.266zM119.074 11.632c-0.405 0.125-1.186 0.613-1.734 1.082s-1.076 0.854-1.172 0.854-0.104-0.436-0.019-0.969l0.154-0.969h-1.944v16.718h1.938v-6.33l1.074 0.772c2.774 1.991 6.784 0.996 8.366-2.077 0.509-0.99 0.614-1.529 0.612-3.14-0.004-2.096-0.337-3.034-1.539-4.33-1.328-1.431-3.945-2.167-5.736-1.611zM88.984 15.324c-0.33 4.539-0.779 6.004-1.947 6.35-0.674 0.199-0.784 0.342-0.784 1.016 0 1.003 0.245 1.137 1.475 0.806 2.051-0.552 2.843-2.343 3.097-6.999l0.154-2.808 3.997-0.141v9.953h1.938v-11.872h-7.662l-0.269 3.695zM129.53 16.346c-0.092 2.594-0.095 5.264-0.006 5.936 0.157 1.18 0.187 1.22 0.947 1.22h0.784l0.176-5.191c0.097-2.856 0.102-5.527 0.013-5.936-0.142-0.646-0.269-0.744-0.955-0.744h-0.792l-0.167 4.717zM137.126 12.175c-1.449 0.732-2.173 1.858-2.173 3.379 0 1.387 0.445 2.37 1.386 3.063 0.571 0.421 0.629 0.562 0.383 0.933-0.697 1.052-2.254 3.686-2.254 3.813 0 0.076 0.484 0.139 1.074 0.139h1.073l2.489-4.119h3.359v4.119h1.938v-11.872h-3.099c-2.732 0-3.226 0.065-4.177 0.545zM67.341 13.783c0.844 0.602 1.439 1.48 1.617 2.39l0.154 0.787h-3.907c-2.524 0-3.907-0.089-3.907-0.25 0-1.098 1.482-2.875 2.787-3.34 0.924-0.329 2.492-0.131 3.256 0.413zM107.833 13.737c0.753 0.444 1.68 1.941 1.68 2.711 0 0.5-0.091 0.512-3.893 0.512h-3.893l0.17-0.545c0.373-1.199 0.569-1.541 1.232-2.15 1.314-1.21 3.193-1.421 4.704-0.528zM122.554 13.98c2.657 1.968 2.556 5.662-0.205 7.538-1.1 0.747-3.141 0.666-4.316-0.169-2.542-1.81-2.218-6.127 0.567-7.554 1.189-0.611 2.995-0.526 3.954 0.185zM142.464 15.506v2.181h-2.041c-1.842 0-2.114-0.061-2.787-0.627-0.848-0.713-0.973-1.605-0.35-2.493 0.582-0.831 1.702-1.221 3.542-1.232l1.636-0.009v2.181zM81.19 14.115c0.993 0.66 1.914 2.382 1.914 3.58 0 1.294-1.157 3.378-2.181 3.928-1.061 0.57-2.905 0.459-3.834-0.23-2.567-1.903-2.155-6.419 0.688-7.554 1.072-0.428 2.53-0.31 3.412 0.276z"></path>
</symbol>
 </defs>
</svg>